<svg width="13" height="23" viewBox="0 0 13 23" fill="none" xmlns="http://www.w3.org/2000/svg">
<path d="M11.9319 20.6752L2.6657 11.1693L11.9319 1.66352C12.0978 1.49369 12.1906 1.26569 12.1906 1.02828C12.1906 0.79087 12.0978 0.562877 11.9319 0.39304C11.8513 0.310805 11.7551 0.245474 11.649 0.200874C11.5428 0.156273 11.4289 0.133301 11.3137 0.133301C11.1986 0.133301 11.0846 0.156273 10.9785 0.200874C10.8724 0.245474 10.7762 0.310805 10.6956 0.39304L0.836053 10.5056C0.662952 10.6832 0.566072 10.9213 0.566072 11.1693C0.566072 11.4173 0.662952 11.6555 0.836053 11.8331L10.6937 21.9456C10.7744 22.0285 10.8708 22.0943 10.9773 22.1392C11.0837 22.1842 11.1982 22.2073 11.3137 22.2073C11.4293 22.2073 11.5437 22.1842 11.6502 22.1392C11.7567 22.0943 11.8531 22.0285 11.9338 21.9456C12.0997 21.7758 12.1925 21.5478 12.1925 21.3104C12.1925 21.073 12.0997 20.845 11.9338 20.6752L11.9319 20.6752Z" fill="#72C7C0"/>
</svg>
