<svg width="14" height="15" fill="none" xmlns="http://www.w3.org/2000/svg"><path d="M5.152 13.847l-.063.495.063-.495zm-3.135-3.465l.494-.083-.494.083zm.191.97l.479-.143-.479.144zm8.057-.97l.493.082-.493-.082zm-.19.97l-.48-.143.48.144zM7.13 13.848l.063.495-.063-.495zM8.703 1.292l.151-.476-.151.476zm2.173 5.423l-.493-.083.493.083zm.257-2.554l.494-.072-.494.072zM3.58 1.292L3.428.816l.152.476zM1.406 6.715l-.493.082.493-.082zM1.15 4.16l-.495-.072.495.072zm2.404 6.195a.5.5 0 00.984-.174l-.984.174zm.246-4.36a.5.5 0 10-.984.174l.984-.173zm6.583.636l-.61 3.667.986.165.61-3.667-.986-.165zM2.511 10.3l-.612-3.667-.986.165.611 3.667.987-.165zm3.63 3.076c-.525 0-.742-.001-.926-.024l-.126.991c.262.034.556.033 1.052.033v-1zm-4.617-2.911c.082.49.13.78.205 1.033l.958-.288c-.053-.178-.09-.391-.176-.91l-.987.165zm3.691 2.887a3.042 3.042 0 01-2.528-2.142l-.958.288a4.042 4.042 0 003.36 2.845l.126-.991zm4.557-3.052c-.086.519-.123.732-.176.91l.957.288c.076-.254.124-.544.205-1.033l-.986-.165zm-3.63 4.076c.496 0 .79.001 1.052-.033l-.126-.991c-.184.023-.401.024-.927.024v1zm3.454-3.166a3.042 3.042 0 01-2.528 2.142l.126.991a4.042 4.042 0 003.36-2.845l-.958-.288zM6.14 1.625c1.399 0 1.978.006 2.41.144l.303-.953C8.236.619 7.46.625 6.141.625v1zm5.229 5.172c.216-1.3.35-2.066.257-2.708l-.99.143c.065.448-.024 1.021-.254 2.4l.987.165zM8.55 1.769a3.042 3.042 0 012.088 2.463l.99-.143A4.041 4.041 0 008.853.816l-.303.953zM6.142.625c-1.317 0-2.095-.006-2.713.19l.304.954c.431-.138 1.011-.144 2.41-.144v-1zM1.9 6.632c-.23-1.379-.319-1.952-.254-2.4l-.99-.143c-.092.642.042 1.409.258 2.708l.986-.165zM3.43.816A4.042 4.042 0 00.654 4.089l.99.143A3.042 3.042 0 013.732 1.77L3.428.816zM12.724 7.5c0 .897-.728 1.625-1.625 1.625v1A2.625 2.625 0 0013.725 7.5h-1zM11.1 5.875c.897 0 1.625.728 1.625 1.625h1A2.625 2.625 0 0011.1 4.875v1zm0 3.25c-.191 0-.373-.033-.542-.092l-.333.943c.274.096.569.149.875.149v-1zm-6.562 1.057L3.8 5.997l-.984.173.738 4.186.984-.174z" fill="#FAC611"/></svg>