<svg width="18" height="18" fill="none" xmlns="http://www.w3.org/2000/svg"><path d="M9.812 5.14a1 1 0 10-2 0h2zm1.264 2.91a1 1 0 00-1.414-1.414l1.414 1.414zM1.578 1.606a1 1 0 101.25 1.561l-1.25-1.561zm3.085.093A1 1 0 003.414.137l1.25 1.562zm10.133 1.468a1 1 0 101.249-1.561l-1.25 1.561zm-.587-3.03a1 1 0 10-1.25 1.562L14.21.137zm-5.334 8.7l.707.708-.707-.708zM7.812 5.14v3.671h2V5.14h-2zm1.85 1.496L8.167 8.13l1.415 1.415 1.494-1.495-1.414-1.414zm5.492 2.175a6.343 6.343 0 01-6.342 6.343v2a8.343 8.343 0 008.342-8.343h-2zm-6.342 6.343a6.343 6.343 0 01-6.343-6.343h-2a8.343 8.343 0 008.343 8.343v-2zM2.469 8.811A6.343 6.343 0 018.812 2.47v-2A8.343 8.343 0 00.469 8.81h2zM8.812 2.47a6.343 6.343 0 016.342 6.342h2A8.343 8.343 0 008.812.47v2zm-5.984.698L4.663 1.7 3.414.137 1.578 1.606l1.25 1.561zm13.217-1.561L14.209.137l-1.25 1.562 1.837 1.468 1.249-1.561zM8.167 8.13c.607-.606 1.644-.177 1.645.681h-2c0 .924 1.117 1.387 1.77.734L8.167 8.13z" fill="#FFE141"/></svg>